<svg width="137" height="178" viewBox="0 0 137 178" fill="none" xmlns="http://www.w3.org/2000/svg">
<g filter="url(#filter0_d_1_1444)">
<path d="M50.96 98.6762L67.4448 108.194L33.9694 166.175L24.3613 144.746L50.96 98.6762Z" fill="#AA75CB"/>
<path d="M50.96 98.6762L34.4752 89.1587L0.999824 147.14L24.3613 144.746L50.96 98.6762Z" fill="#73488D"/>
<path d="M74.478 98.6762L57.9932 108.194L91.4686 166.175L101.077 144.746L74.478 98.6762Z" fill="#73488D"/>
<path d="M74.478 98.6762L90.9628 89.1587L124.438 147.14L101.077 144.746L74.478 98.6762Z" fill="#AA75CB"/>
<circle cx="62.6924" cy="58.7539" r="57.2539" fill="#DC9E42" stroke="#774700"/>
<circle cx="62.6927" cy="58.7539" r="44.3016" fill="#734C12"/>
<mask id="mask0_1_1444" style="mask-type:alpha" maskUnits="userSpaceOnUse" x="20" y="19" width="90" height="89">
<circle cx="65.0575" cy="63.4834" r="44.4047" fill="#C28B37"/>
</mask>
<g mask="url(#mask0_1_1444)">
<circle cx="62.6928" cy="58.7539" r="44.4047" fill="#A36D1D"/>
</g>
<path d="M62.932 27.8625L72.5107 47.02L91.6681 49.4147L78.5133 64.1659L82.0894 85.3348L62.932 75.7561L43.7745 85.3348L47.3825 64.1659L34.1958 49.4147L53.3532 47.02L62.932 27.8625Z" fill="url(#paint0_linear_1_1444)"/>
</g>
<defs>
<filter id="filter0_d_1_1444" x="0.216502" y="0.216502" width="135.974" height="177.711" filterUnits="userSpaceOnUse" color-interpolation-filters="sRGB">
<feFlood flood-opacity="0" result="BackgroundImageFix"/>
<feColorMatrix in="SourceAlpha" type="matrix" values="0 0 0 0 0 0 0 0 0 0 0 0 0 0 0 0 0 0 127 0" result="hardAlpha"/>
<feOffset dx="5.48449" dy="5.48449"/>
<feGaussianBlur stdDeviation="3.13399"/>
<feComposite in2="hardAlpha" operator="out"/>
<feColorMatrix type="matrix" values="0 0 0 0 0 0 0 0 0 0 0 0 0 0 0 0 0 0 0.3 0"/>
<feBlend mode="normal" in2="BackgroundImageFix" result="effect1_dropShadow_1_1444"/>
<feBlend mode="normal" in="SourceGraphic" in2="effect1_dropShadow_1_1444" result="shape"/>
</filter>
<linearGradient id="paint0_linear_1_1444" x1="62.932" y1="27.8625" x2="62.932" y2="85.3349" gradientUnits="userSpaceOnUse">
<stop stop-color="#FCFF80"/>
<stop offset="0.401042" stop-color="#FDE870"/>
<stop offset="1" stop-color="#FFC759"/>
</linearGradient>
</defs>
</svg>
