<svg width="143" height="191" viewBox="0 0 143 191" fill="none" xmlns="http://www.w3.org/2000/svg">
<g filter="url(#filter0_d_1_1421)">
<path d="M57.3682 103.563L73.853 113.081L40.3776 171.062L30.7695 149.633L57.3682 103.563Z" fill="#CE4444"/>
<path d="M57.3682 103.563L40.8834 94.0457L7.40803 152.027L30.7695 149.633L57.3682 103.563Z" fill="#983535"/>
<path d="M80.8862 103.563L64.4014 113.081L97.8768 171.062L107.485 149.633L80.8862 103.563Z" fill="#983535"/>
<path d="M80.8862 103.563L97.371 94.0457L130.846 152.027L107.485 149.633L80.8862 103.563Z" fill="#CE4444"/>
<circle cx="68.6216" cy="63.6409" r="57.2539" fill="url(#paint0_linear_1_1421)" stroke="#765C00"/>
<circle cx="68.6219" cy="63.6409" r="44.3016" fill="#A88300"/>
<mask id="mask0_1_1421" style="mask-type:alpha" maskUnits="userSpaceOnUse" x="26" y="23" width="90" height="90">
<circle cx="70.9867" cy="68.3703" r="44.4047" fill="#C28B37"/>
</mask>
<g mask="url(#mask0_1_1421)">
<circle cx="68.622" cy="63.6408" r="44.4047" fill="#C09525"/>
</g>
<path d="M68.8612 32.7495L78.4399 51.9069L97.5973 54.3016L84.4425 69.0529L88.0186 90.2218L68.8612 80.6431L49.7037 90.2218L53.3117 69.0529L40.125 54.3016L59.2824 51.9069L68.8612 32.7495Z" fill="url(#paint1_linear_1_1421)"/>
<path d="M13.7454 29.2361L19.9909 15.4907L13.7454 1.74536L27.4907 7.99091L41.2361 1.74536L34.9905 15.4907L41.2361 29.2361L27.4907 22.9905L13.7454 29.2361Z" fill="white"/>
</g>
<defs>
<filter id="filter0_d_1_1421" x="-0.783498" y="0.961864" width="143.383" height="200.852" filterUnits="userSpaceOnUse" color-interpolation-filters="sRGB">
<feFlood flood-opacity="0" result="BackgroundImageFix"/>
<feColorMatrix in="SourceAlpha" type="matrix" values="0 0 0 0 0 0 0 0 0 0 0 0 0 0 0 0 0 0 127 0" result="hardAlpha"/>
<feOffset dx="5.48449" dy="5.48449"/>
<feGaussianBlur stdDeviation="3.13399"/>
<feComposite in2="hardAlpha" operator="out"/>
<feColorMatrix type="matrix" values="0 0 0 0 0 0 0 0 0 0 0 0 0 0 0 0 0 0 0.3 0"/>
<feBlend mode="normal" in2="BackgroundImageFix" result="effect1_dropShadow_1_1421"/>
<feBlend mode="normal" in="SourceGraphic" in2="effect1_dropShadow_1_1421" result="shape"/>
</filter>
<linearGradient id="paint0_linear_1_1421" x1="68.6216" y1="6.88696" x2="68.6216" y2="120.395" gradientUnits="userSpaceOnUse">
<stop stop-color="#FFC600"/>
<stop offset="1" stop-color="#FFDE69"/>
</linearGradient>
<linearGradient id="paint1_linear_1_1421" x1="68.8612" y1="32.7495" x2="68.8612" y2="90.2218" gradientUnits="userSpaceOnUse">
<stop stop-color="#FFFCDD"/>
<stop offset="1" stop-color="#FFE896"/>
</linearGradient>
</defs>
</svg>
