<svg width="22" height="22" viewBox="0 0 22 22" fill="none" xmlns="http://www.w3.org/2000/svg">
<path d="M1.95302 20.592C1.41441 20.0534 1.04935 19.401 0.857837 18.635C0.678298 17.857 0.893745 17.1628 1.50418 16.5523L6.72876 11.3278L1.70167 6.30068C1.11518 5.71418 0.911699 5.04391 1.09124 4.28984C1.27078 3.53578 1.61788 2.90141 2.13256 2.38673C2.65921 1.86008 3.30555 1.48904 4.07158 1.27359C4.86155 1.05814 5.56175 1.25564 6.17219 1.86607L11.1813 6.8752L16.4418 1.61471C17.0522 1.00428 17.7345 0.800805 18.4886 1.00428C19.2666 1.20776 19.9189 1.57282 20.4455 2.09947C20.9722 2.62612 21.3133 3.2545 21.4689 3.98463C21.6365 4.72672 21.421 5.397 20.8226 5.99546L15.5621 11.2559L20.5892 16.283C21.1996 16.8935 21.3851 17.5817 21.1457 18.3477C20.9303 19.1138 20.5592 19.7601 20.0326 20.2868C19.5179 20.8014 18.8895 21.1545 18.1474 21.346C17.4053 21.5375 16.7351 21.3341 16.1366 20.7356L11.1095 15.7085L5.84902 20.969C5.26252 21.5555 4.59224 21.7709 3.83818 21.6153C3.10806 21.4597 2.47967 21.1186 1.95302 20.592Z" fill="white"/>
</svg>
