<svg width="22" height="19" viewBox="0 0 22 19" fill="none" xmlns="http://www.w3.org/2000/svg">
<path d="M11.0012 18.8374L1.87474 9.71096C1.14676 8.98298 0.661434 8.13662 0.418773 7.1719C0.182031 6.20717 0.18499 5.24836 0.427651 4.29548C0.670312 3.33667 1.15267 2.50215 1.87474 1.79193C2.61456 1.06394 3.45795 0.58158 4.40492 0.344838C5.35781 0.102176 6.30774 0.102176 7.25471 0.344838C8.2076 0.587498 9.05395 1.06986 9.79377 1.79193L11.0012 2.9638L12.2085 1.79193C12.9543 1.06986 13.8006 0.587498 14.7476 0.344838C15.6946 0.102176 16.6415 0.102176 17.5885 0.344838C18.5414 0.58158 19.3878 1.06394 20.1276 1.79193C20.8496 2.50215 21.332 3.33667 21.5747 4.29548C21.8173 5.24836 21.8173 6.20717 21.5747 7.1719C21.3379 8.13662 20.8556 8.98298 20.1276 9.71096L11.0012 18.8374Z" fill="#EDEDED"/>
</svg>
