<svg width="23" height="24" viewBox="0 0 23 24" fill="none" xmlns="http://www.w3.org/2000/svg">
<path fill-rule="evenodd" clip-rule="evenodd" d="M22.326 1.9732C22.1207 1.2843 21.6553 0.71005 21.0161 0.35625C20.5948 0.1232 20.1169 0 19.6342 0C18.656 0 17.7352 0.50755 17.2308 1.32455L9.11757 14.4625L4.95602 9.6052C4.42167 8.9815 3.63732 8.62375 2.80365 8.62375C2.19504 8.62375 1.61545 8.81175 1.12704 9.16745C-0.0653979 10.0363 -0.35522 11.6649 0.467532 12.8751L7.19902 22.7763C7.71997 23.5427 8.59341 24.0002 9.5357 24.0002C9.58058 24.0002 9.62638 23.9991 9.67176 23.997C10.6537 23.9504 11.5504 23.3954 12.012 22.5485L22.1091 4.02365C22.4541 3.3903 22.5313 2.6621 22.326 1.9732Z" fill="white"/>
</svg>
