<svg width="336" height="692" viewBox="0 0 336 692" fill="none" xmlns="http://www.w3.org/2000/svg">
<mask id="path-1-inside-1_54652_240" fill="white">
<path d="M176.145 495.614H89.7749C90.0845 465.896 92.7158 441.594 97.6689 422.71C102.932 403.517 111.445 386.026 123.208 370.238C134.972 354.45 150.605 336.495 170.108 316.373C184.349 301.823 197.351 288.202 209.114 275.51C221.188 262.508 230.939 248.577 238.369 233.718C245.798 218.549 249.513 200.439 249.513 179.388C249.513 158.028 245.644 139.608 237.904 124.13C230.475 108.651 219.33 96.7329 204.471 88.3745C189.921 80.0161 171.811 75.8369 150.141 75.8369C132.186 75.8369 115.16 79.0874 99.062 85.5884C82.9644 92.0894 69.9624 102.15 60.0562 115.771C50.1499 129.083 45.042 146.574 44.7324 168.244H-41.1733C-40.5542 133.262 -31.8862 103.234 -15.1694 78.1587C1.85693 53.0835 24.7651 33.8901 53.5552 20.5786C82.3452 7.26709 114.541 0.611328 150.141 0.611328C189.457 0.611328 222.89 7.73145 250.442 21.9717C278.303 36.2119 299.509 56.6436 314.059 83.2666C328.608 109.58 335.883 140.847 335.883 177.066C335.883 204.928 330.156 230.622 318.702 254.149C307.558 277.367 293.163 299.192 275.517 319.624C257.872 340.055 239.143 359.558 219.33 378.132C202.304 393.92 190.85 411.721 184.968 431.533C179.086 451.346 176.145 472.706 176.145 495.614ZM86.0601 642.815C86.0601 628.884 90.394 617.121 99.062 607.524C107.73 597.927 120.268 593.129 136.675 593.129C153.392 593.129 166.084 597.927 174.752 607.524C183.42 617.121 187.754 628.884 187.754 642.815C187.754 656.126 183.42 667.581 174.752 677.177C166.084 686.774 153.392 691.572 136.675 691.572C120.268 691.572 107.73 686.774 99.062 677.177C90.394 667.581 86.0601 656.126 86.0601 642.815Z"/>
</mask>
<path d="M176.145 495.614V497.614H178.145V495.614H176.145ZM89.7749 495.614L87.775 495.593L87.754 497.614H89.7749V495.614ZM97.6689 422.71L95.7401 422.182L95.7372 422.192L95.7344 422.203L97.6689 422.71ZM170.108 316.373L168.679 314.974L168.672 314.981L170.108 316.373ZM209.114 275.51L207.649 274.149L207.647 274.15L209.114 275.51ZM238.369 233.718L240.158 234.612L240.161 234.605L240.165 234.598L238.369 233.718ZM237.904 124.13L236.101 124.995L236.108 125.01L236.115 125.024L237.904 124.13ZM204.471 88.3745L203.474 90.1087L203.482 90.1132L203.49 90.1177L204.471 88.3745ZM60.0562 115.771L61.6606 116.966L61.6672 116.957L61.6736 116.948L60.0562 115.771ZM44.7324 168.244V170.244H46.7041L46.7322 168.272L44.7324 168.244ZM-41.1733 168.244L-43.173 168.208L-43.2091 170.244H-41.1733V168.244ZM-15.1694 78.1587L-16.824 77.0352L-16.8288 77.0422L-16.8335 77.0493L-15.1694 78.1587ZM250.442 21.9717L249.524 23.7484L249.532 23.7525L250.442 21.9717ZM314.059 83.2666L312.304 84.2257L312.308 84.2344L314.059 83.2666ZM318.702 254.149L316.904 253.274L316.899 253.284L318.702 254.149ZM219.33 378.132L220.69 379.599L220.698 379.591L219.33 378.132ZM184.968 431.533L183.05 430.964L184.968 431.533ZM174.752 607.524L173.268 608.864L174.752 607.524ZM174.752 677.177L173.268 675.837L174.752 677.177ZM176.145 495.614V493.614H89.7749V495.614V497.614H176.145V495.614ZM89.7749 495.614L91.7748 495.635C92.0834 466.005 94.7077 441.883 99.6035 423.218L97.6689 422.71L95.7344 422.203C90.7239 441.305 88.0855 465.786 87.775 495.593L89.7749 495.614ZM97.6689 422.71L99.5978 423.239C104.795 404.284 113.199 387.019 124.812 371.433L123.208 370.238L121.605 369.043C109.691 385.033 101.068 402.751 95.7401 422.182L97.6689 422.71ZM123.208 370.238L124.812 371.433C136.508 355.737 152.079 337.849 171.545 317.765L170.108 316.373L168.672 314.981C149.132 335.142 133.436 353.164 121.605 369.043L123.208 370.238ZM170.108 316.373L171.538 317.772C185.789 303.211 198.803 289.577 210.581 276.869L209.114 275.51L207.647 274.15C195.898 286.827 182.909 300.435 168.679 314.974L170.108 316.373ZM209.114 275.51L210.58 276.871C222.774 263.739 232.637 249.653 240.158 234.612L238.369 233.718L236.58 232.823C229.241 247.501 219.601 261.277 207.649 274.149L209.114 275.51ZM238.369 233.718L240.165 234.598C247.758 219.096 251.513 200.671 251.513 179.388H249.513H247.513C247.513 200.207 243.839 218.002 236.573 232.838L238.369 233.718ZM249.513 179.388H251.513C251.513 157.789 247.6 139.049 239.693 123.235L237.904 124.13L236.115 125.024C243.687 140.168 247.513 158.267 247.513 179.388H249.513ZM237.904 124.13L239.707 123.264C232.101 107.419 220.671 95.1925 205.451 86.6314L204.471 88.3745L203.49 90.1177C217.989 98.2733 228.848 109.884 236.101 124.995L237.904 124.13ZM204.471 88.3745L205.467 86.6403C190.538 78.0641 172.061 73.8369 150.141 73.8369V75.8369V77.8369C171.561 77.8369 189.304 81.9681 203.474 90.1087L204.471 88.3745ZM150.141 75.8369V73.8369C131.938 73.8369 114.657 77.1335 98.3131 83.7339L99.062 85.5884L99.8109 87.4429C115.662 81.0413 132.434 77.8369 150.141 77.8369V75.8369ZM99.062 85.5884L98.3131 83.7339C81.8794 90.3706 68.5723 100.661 58.4387 114.595L60.0562 115.771L61.6736 116.948C71.3525 103.639 84.0493 93.8081 99.8109 87.4429L99.062 85.5884ZM60.0562 115.771L58.4517 114.577C48.2275 128.316 43.0464 146.253 42.7326 168.215L44.7324 168.244L46.7322 168.272C47.0376 146.895 52.0724 129.85 61.6606 116.966L60.0562 115.771ZM44.7324 168.244V166.244H-41.1733V168.244V170.244H44.7324V168.244ZM-41.1733 168.244L-39.1737 168.279C-38.5602 133.617 -29.9774 103.976 -13.5053 79.2681L-15.1694 78.1587L-16.8335 77.0493C-33.7951 102.492 -42.5482 132.907 -43.173 168.208L-41.1733 168.244ZM-15.1694 78.1587L-13.5148 79.2822C3.29793 54.5216 25.918 35.5605 54.3945 22.394L53.5552 20.5786L52.7158 18.7633C23.6123 32.2197 0.415934 51.6454 -16.824 77.0352L-15.1694 78.1587ZM53.5552 20.5786L54.3945 22.394C82.8909 9.2182 114.795 2.61133 150.141 2.61133V0.611328V-1.38867C114.286 -1.38867 81.7995 5.31598 52.7158 18.7633L53.5552 20.5786ZM150.141 0.611328V2.61133C189.22 2.61133 222.322 9.6889 249.524 23.7484L250.442 21.9717L251.36 20.195C223.459 5.774 189.693 -1.38867 150.141 -1.38867V0.611328ZM250.442 21.9717L249.532 23.7525C277.047 37.816 297.953 57.9668 312.304 84.2257L314.059 83.2666L315.814 82.3075C301.065 55.3203 279.559 34.6078 251.352 20.1908L250.442 21.9717ZM314.059 83.2666L312.308 84.2344C326.664 110.197 333.883 141.116 333.883 177.066H335.883H337.883C337.883 140.577 330.553 108.964 315.809 82.2988L314.059 83.2666ZM335.883 177.066H333.883C333.883 204.644 328.217 230.037 316.904 253.274L318.702 254.149L320.5 255.025C332.096 231.207 337.883 205.211 337.883 177.066H335.883ZM318.702 254.149L316.899 253.284C305.835 276.335 291.539 298.012 274.003 318.316L275.517 319.624L277.031 320.931C294.786 300.372 309.281 278.4 320.505 255.015L318.702 254.149ZM275.517 319.624L274.003 318.316C256.404 338.694 237.724 358.147 217.962 376.673L219.33 378.132L220.698 379.591C240.561 360.969 259.339 341.416 277.031 320.931L275.517 319.624ZM219.33 378.132L217.97 376.666C200.714 392.667 189.047 410.767 183.05 430.964L184.968 431.533L186.885 432.102C192.653 412.675 203.893 395.174 220.69 379.599L219.33 378.132ZM184.968 431.533L183.05 430.964C177.108 450.98 174.145 472.534 174.145 495.614H176.145H178.145C178.145 472.878 181.064 451.711 186.885 432.102L184.968 431.533ZM86.0601 642.815H88.0601C88.0601 629.338 92.2371 618.064 100.546 608.864L99.062 607.524L97.5778 606.183C88.5509 616.177 84.0601 628.431 84.0601 642.815H86.0601ZM99.062 607.524L100.546 608.864C108.738 599.795 120.671 595.129 136.675 595.129V593.129V591.129C119.864 591.129 106.722 596.06 97.5778 606.183L99.062 607.524ZM136.675 593.129V595.129C153.002 595.129 165.083 599.802 173.268 608.864L174.752 607.524L176.236 606.183C167.085 596.052 153.782 591.129 136.675 591.129V593.129ZM174.752 607.524L173.268 608.864C181.577 618.064 185.754 629.338 185.754 642.815H187.754H189.754C189.754 628.431 185.263 616.177 176.236 606.183L174.752 607.524ZM187.754 642.815H185.754C185.754 655.647 181.593 666.619 173.268 675.837L174.752 677.177L176.236 678.518C185.247 668.542 189.754 656.606 189.754 642.815H187.754ZM174.752 677.177L173.268 675.837C165.083 684.899 153.002 689.572 136.675 689.572V691.572V693.572C153.782 693.572 167.085 688.649 176.236 678.518L174.752 677.177ZM136.675 691.572V689.572C120.671 689.572 108.738 684.906 100.546 675.837L99.062 677.177L97.5778 678.518C106.722 688.641 119.864 693.572 136.675 693.572V691.572ZM99.062 677.177L100.546 675.837C92.2208 666.619 88.0601 655.647 88.0601 642.815H86.0601H84.0601C84.0601 656.606 88.5673 668.542 97.5778 678.518L99.062 677.177Z" fill="url(#paint0_linear_54652_240)" mask="url(#path-1-inside-1_54652_240)"/>
<defs>
<linearGradient id="paint0_linear_54652_240" x1="201.05" y1="686" x2="201.05" y2="10" gradientUnits="userSpaceOnUse">
<stop stop-color="#F8C23A"/>
<stop offset="0.997803" stop-color="#E78033"/>
</linearGradient>
</defs>
</svg>
